<svg xmlns="http://www.w3.org/2000/svg" viewBox="0 0 512 512" width="512" height="512" data-bbox="31.61431882911529 205.02446918722853 448.77136710005084 101.95104053855721" style=""><rect data-fl-background="" x="0" y="0" width="512" height="512" fill="transparent"></rect><g data-icon="" transform="matrix(1.0039294682955324, 0, 0, 1.0039294682955324, -1.0059362242822716, 0)"><svg id="uf3nda52jk_10447" enable-background="new 0 0 512 512" height="512" viewBox="0 0 512 512" width="512" xmlns="http://www.w3.org/2000/svg"><g><g><path d="m300.998 287.798v-77.798h-15c-24.814 0-45-20.186-45-45v-120c0-24.814 20.186-45 45-45h180c24.814 0 45 20.186 45 45v120c0 24.814-20.186 45-45 45h-75.029z" fill="rgba(203,170,142,1)"></path></g><path d="m465.996 0h-87.993v221.212l12.963-11.212h75.029c24.814 0 45-20.186 45-45v-120c.001-24.814-20.185-45-44.999-45z" fill="rgba(187,148,118,1)"></path><g><path d="m211.002 242h-45c-24.902 0-45-20.099-45-45h-30v85.499c0 39.3 28.198 75 67.2 79.2 2.703.3 5.098.3 7.8.3 38.401 0 70.499-29.399 74.7-66.899.3-2.701.3-5.4.3-8.101v-15c0-16.499-13.498-29.999-30-29.999z" fill="#ffe6cc"></path></g><path d="m241.002 272v15c0 2.701 0 5.4-.3 8.101-4.2 37.5-36.299 66.899-74.7 66.899v-120h45c16.502 0 30 13.5 30 30z" fill="#ffccb3"></path><g><path d="m331.002 512h-60c-16.569 0-30-13.431-30-30v-114.727l22.398 12.878c41.821 24.045 67.602 68.608 67.602 116.848z" fill="#4da6ff"></path></g><g><path d="m61.002 512h-60v-15c0-48.241 25.781-92.803 67.602-116.848l22.398-12.878v114.726c0 16.569-13.431 30-30 30z" fill="#59c8ff"></path></g><g id="uf3nda52jk_10445"><g><path d="m241.002 272h-75c-41.367 0-75-33.647-75-75v-15h75c41.367 0 75 33.647 75 75z" fill="#ffc24d"></path></g><g><path d="m271.002 512h-210v-150h210z" fill="#66538c"></path></g><g><path d="m337.397 145.605-40.605-40.605 40.605-40.605 21.211 21.21-19.395 19.395 19.395 19.395z" fill="#f3f5f9"></path></g><g><path d="m418.608 145.605-21.211-21.21 19.395-19.395-19.395-19.395 21.211-21.21 40.605 40.605z" fill="#f3f5f9"></path></g></g><g id="uf3nda52jk_10446"><g><path d="m337.397 145.605-40.605-40.605 40.605-40.605 21.211 21.21-19.395 19.395 19.395 19.395z" fill="#f3f5f9"></path></g><g><path d="m418.608 145.605-21.211-21.21 19.395-19.395-19.395-19.395 21.211-21.21 40.605 40.605z" fill="#d9e5ff"></path></g></g><path d="m241.002 272v-15c0-41.353-33.633-75-75-75v90z" fill="#ff9f40"></path><path d="m166.002 362h105v150h-105z" fill="#443d66"></path></g></svg></g></svg>